<svg xmlns="http://www.w3.org/2000/svg" viewBox="0 0 320 320">
  <rect width="320" height="320" rx="36" fill="#f0f5ff"/>
  <circle cx="160" cy="168" r="82" fill="#f3caa8"/>
  <path d="M83 153c3-35 17-67 41-88 23-20 52-30 84-28 46 2 82 29 99 73-30-22-65-31-105-28-32 2-72 23-119 71z" fill="#1f2530"/>
  <path d="M124 98c35-11 79-5 119 22-40-2-74 6-102 24-3-20-10-35-17-46z" fill="#3b4454"/>
  <path d="M116 240c34 18 58 25 90 24 29 0 52-8 79-28-13-35-41-58-85-58-43 0-70 18-84 62z" fill="#6f879f"/>
</svg>
