<svg xmlns="http://www.w3.org/2000/svg" viewBox="0 0 320 320">
  <rect width="320" height="320" rx="36" fill="#fff4ea"/>
  <circle cx="160" cy="170" r="82" fill="#efc29d"/>
  <path d="M82 160c6-58 41-98 90-101 48-4 92 25 116 77-17-16-36-24-57-24-10 0-20 1-31 5-9-23-31-38-65-38-24 0-41 8-53 20z" fill="#7a482c"/>
  <path d="M226 107c17 7 30 18 39 35 8 14 11 28 10 43-6-14-17-25-34-31-7 18-19 31-38 39 9-30 16-58 23-86z" fill="#93593a"/>
  <path d="M116 241c31 20 56 25 87 25 30 0 55-8 82-30-14-34-39-58-84-58-43 0-72 22-85 63z" fill="#b06c54"/>
</svg>
