<svg xmlns="http://www.w3.org/2000/svg" viewBox="0 0 320 320">
  <rect width="320" height="320" rx="36" fill="#eef3fb"/>
  <circle cx="160" cy="168" r="82" fill="#f1c7a6"/>
  <path d="M86 152c4-55 34-93 76-99 36-5 75 10 102 44 13 17 22 40 24 63-17-18-36-27-57-27-12 0-24 4-38 11-13-17-32-27-57-27-16 0-32 5-50 15z" fill="#503421"/>
  <path d="M114 114c31-31 84-37 130-7-31 2-56 17-73 46-6-21-24-33-57-39z" fill="#6a4731" opacity=".9"/>
  <path d="M117 239c31 21 56 27 86 27 30 0 56-9 84-29-10-33-39-58-83-58-42 0-72 22-87 60z" fill="#8aa0bf"/>
</svg>
