<svg xmlns="http://www.w3.org/2000/svg" viewBox="0 0 320 320">
  <rect width="320" height="320" rx="36" fill="#f5f1ff"/>
  <circle cx="160" cy="170" r="82" fill="#efc29d"/>
  <path d="M74 160c16-58 48-94 89-99 25-3 53 4 76 18 30 18 51 50 60 88-13-12-28-19-41-22 0-20-9-35-25-44-6 19-17 32-35 39-19-15-44-21-75-18-13 1-29 9-49 22z" fill="#5b3c27"/>
  <path d="M98 104l24-31 6 27 31-28 4 33 33-18-5 25 33 1-22 21" fill="none" stroke="#6d4930" stroke-linecap="round" stroke-linejoin="round" stroke-width="12"/>
  <path d="M114 241c30 19 58 24 87 24 31 0 55-8 82-30-13-33-38-56-82-57-43 0-75 24-87 63z" fill="#7288a3"/>
</svg>
