<svg xmlns="http://www.w3.org/2000/svg" viewBox="0 0 64 64" role="img" aria-labelledby="title desc">
  <title id="title">Coffee resource icon</title>
  <desc id="desc">A warm office coffee mug with steam.</desc>
  <defs>
    <linearGradient id="bg" x1="0" y1="0" x2="0" y2="1">
      <stop offset="0" stop-color="#f7d788" />
      <stop offset="1" stop-color="#e6ab3c" />
    </linearGradient>
  </defs>
  <circle cx="32" cy="32" r="30" fill="url(#bg)" />
  <path d="M19 25h19a5 5 0 0 1 5 5v8a9 9 0 0 1-9 9H28a9 9 0 0 1-9-9v-8a5 5 0 0 1 0-5z" fill="#fff8ea" stroke="#7d5320" stroke-width="2.5" />
  <path d="M43 29h4a5 5 0 0 1 0 10h-4" fill="none" stroke="#7d5320" stroke-width="3" stroke-linecap="round" />
  <path d="M24 21c0-2 1-3 1-5" fill="none" stroke="#fff8ea" stroke-width="2.5" stroke-linecap="round" />
  <path d="M31 20c0-2 1-3 1-5" fill="none" stroke="#fff8ea" stroke-width="2.5" stroke-linecap="round" />
  <path d="M38 21c0-2 1-3 1-5" fill="none" stroke="#fff8ea" stroke-width="2.5" stroke-linecap="round" />
  <path d="M23 42h15" stroke="#7d5320" stroke-width="2.5" stroke-linecap="round" />
</svg>
