<svg xmlns="http://www.w3.org/2000/svg" viewBox="0 0 64 64" role="img" aria-labelledby="title desc">
  <title id="title">Connections resource icon</title>
  <desc id="desc">A set of linked office contact nodes.</desc>
  <defs>
    <linearGradient id="bg" x1="0" y1="0" x2="0" y2="1">
      <stop offset="0" stop-color="#f29cb7" />
      <stop offset="1" stop-color="#d96a8b" />
    </linearGradient>
  </defs>
  <circle cx="32" cy="32" r="30" fill="url(#bg)" />
  <path d="M22 39l10-11 10 6" fill="none" stroke="#fff7fb" stroke-width="3" stroke-linecap="round" stroke-linejoin="round" />
  <path d="M21 41a4 4 0 1 1 8 0 4 4 0 0 1-8 0zm14-12a4 4 0 1 1 8 0 4 4 0 0 1-8 0zm7 5a4 4 0 1 1 8 0 4 4 0 0 1-8 0z" fill="#fff7fb" stroke="#7a2740" stroke-width="2" />
  <path d="M28 39h8" stroke="#fff7fb" stroke-width="2.5" stroke-linecap="round" />
</svg>
