<svg xmlns="http://www.w3.org/2000/svg" viewBox="0 0 320 180">
  <rect width="320" height="180" rx="28" fill="#f6f1eb"/>
  <path d="M160 92c-9 0-14 7-18 15-14-19-33-29-57-29-28 0-52 15-72 44 26-9 47-8 63 2 15 10 23 23 31 37 16-5 34-23 45-46 11 23 28 41 45 46 8-14 16-27 31-37 16-10 37-11 63-2-20-29-44-44-72-44-24 0-43 10-57 29-4-8-9-15-18-15z" fill="#4a2e20"/>
  <path d="M160 94c-6 0-10 4-13 10-11-14-26-21-46-20-19 1-35 8-49 23 17-2 31 1 40 8 11 8 19 19 28 31 13-4 28-18 40-38 12 20 27 34 40 38 9-12 17-23 28-31 9-7 23-10 40-8-14-15-30-22-49-23-20-1-35 6-46 20-3-6-7-10-13-10z" fill="#6a4732"/>
</svg>
