<svg xmlns="http://www.w3.org/2000/svg" viewBox="0 0 320 320">
  <rect width="320" height="320" rx="36" fill="#f8f2ea"/>
  <circle cx="160" cy="160" r="82" fill="#efc39f"/>
  <circle cx="131" cy="150" r="8" fill="#2f3d57"/>
  <circle cx="189" cy="150" r="8" fill="#2f3d57"/>
  <path d="M118 131c7-10 17-15 30-13M173 118c13-3 24 2 33 12" fill="none" stroke="#6f4c37" stroke-linecap="round" stroke-width="7"/>
  <path d="M126 192c18 25 50 31 69 0" fill="none" stroke="#7d4f3b" stroke-linecap="round" stroke-width="8"/>
  <path d="M135 200c14 8 31 9 50 0" fill="none" stroke="#fff" stroke-linecap="round" stroke-width="5"/>
  <path d="M115 244c33 20 57 26 88 26 29 0 53-8 80-29-14-35-41-59-84-59-41 0-71 22-84 62z" fill="#b58d63"/>
</svg>
