<svg xmlns="http://www.w3.org/2000/svg" viewBox="0 0 320 320">
  <rect width="320" height="320" rx="36" fill="#f2f6fb"/>
  <circle cx="160" cy="160" r="82" fill="#efc39f"/>
  <circle cx="132" cy="152" r="8" fill="#2f3d57"/>
  <circle cx="188" cy="152" r="8" fill="#2f3d57"/>
  <path d="M117 133c8-10 18-14 30-13M173 120c12-2 23 3 31 12" fill="none" stroke="#6f4c37" stroke-linecap="round" stroke-width="7"/>
  <path d="M131 206c19-9 38-11 58 0" fill="none" stroke="#7d4f3b" stroke-linecap="round" stroke-width="8"/>
  <path d="M115 244c33 20 57 26 88 26 29 0 53-8 80-29-14-35-41-59-84-59-41 0-71 22-84 62z" fill="#93a9c5"/>
</svg>
