<svg xmlns="http://www.w3.org/2000/svg" viewBox="0 0 320 320">
  <rect width="320" height="320" rx="36" fill="#eef7ff"/>
  <circle cx="160" cy="160" r="82" fill="#efc39f"/>
  <circle cx="132" cy="151" r="8" fill="#2f3d57"/>
  <circle cx="188" cy="151" r="8" fill="#2f3d57"/>
  <path d="M115 134c10-7 21-8 33-5M174 129c12-3 23-1 32 6" fill="none" stroke="#6f4c37" stroke-linecap="round" stroke-width="8"/>
  <path d="M135 201c17 5 33 5 50 0" fill="none" stroke="#7d4f3b" stroke-linecap="round" stroke-width="7"/>
  <path d="M160 162l-6 22 13 1" fill="none" stroke="#d39b78" stroke-linecap="round" stroke-linejoin="round" stroke-width="5"/>
  <path d="M115 244c33 20 57 26 88 26 29 0 53-8 80-29-14-35-41-59-84-59-41 0-71 22-84 62z" fill="#7b9cb5"/>
</svg>
